<mxfile host="app.diagrams.net" modified="2023-12-22T08:00:57.818Z" agent="Mozilla/5.0 (Windows NT 10.0; Win64; x64) AppleWebKit/537.36 (KHTML, like Gecko) Chrome/120.0.0.0 Safari/537.36" etag="YfftGoeZH5EtETqrRwa6" version="22.1.11" type="github">
  <diagram id="C5RBs43oDa-KdzZeNtuy" name="Page-1">
    <mxGraphModel dx="928" dy="472" grid="1" gridSize="10" guides="1" tooltips="1" connect="0" arrows="1" fold="1" page="1" pageScale="1" pageWidth="827" pageHeight="1169" math="0" shadow="0">
      <root>
        <mxCell id="WIyWlLk6GJQsqaUBKTNV-0" />
        <mxCell id="WIyWlLk6GJQsqaUBKTNV-1" parent="WIyWlLk6GJQsqaUBKTNV-0" />
        <mxCell id="lwKyXHzO9EQtF-tPuh2o-2" value="永登县城关镇卫生院&lt;br&gt;10.79.40.6" style="rounded=0;whiteSpace=wrap;html=1;" parent="WIyWlLk6GJQsqaUBKTNV-1" vertex="1">
          <mxGeometry x="40" y="40" width="120" height="40" as="geometry" />
        </mxCell>
        <mxCell id="lwKyXHzO9EQtF-tPuh2o-5" value="EMR" style="rounded=0;whiteSpace=wrap;html=1;" parent="WIyWlLk6GJQsqaUBKTNV-1" vertex="1">
          <mxGeometry x="30" y="1000" width="80" height="40" as="geometry" />
        </mxCell>
        <mxCell id="lwKyXHzO9EQtF-tPuh2o-6" value="BISP" style="rounded=0;whiteSpace=wrap;html=1;" parent="WIyWlLk6GJQsqaUBKTNV-1" vertex="1">
          <mxGeometry x="180" y="970" width="80" height="40" as="geometry" />
        </mxCell>
        <mxCell id="lwKyXHzO9EQtF-tPuh2o-10" value="" style="group" parent="WIyWlLk6GJQsqaUBKTNV-1" vertex="1" connectable="0">
          <mxGeometry x="40" y="120" width="700" height="790" as="geometry" />
        </mxCell>
        <mxCell id="lwKyXHzO9EQtF-tPuh2o-4" value="chis" style="rounded=0;whiteSpace=wrap;html=1;fillColor=#cdeb8b;strokeColor=#36393d;" parent="lwKyXHzO9EQtF-tPuh2o-10" vertex="1">
          <mxGeometry width="91.65302782324059" height="40" as="geometry" />
        </mxCell>
        <mxCell id="lwKyXHzO9EQtF-tPuh2o-9" value="&lt;div&gt;#新农合报销接口地址&lt;/div&gt;&lt;div&gt;frontService.url=http\://10.78.63.11\:83/SNRCM-CS-NEW/services/FrontService&lt;/div&gt;&lt;div&gt;&lt;br&gt;&lt;/div&gt;&lt;div&gt;#电子病历接口地址&lt;/div&gt;&lt;div&gt;emr.ipurl=http\://192.168.1.100\:80/EMR/url/&lt;/div&gt;&lt;div&gt;emr.domain=192.168.1.100:80&lt;/div&gt;&lt;div&gt;&lt;br&gt;&lt;/div&gt;&lt;div&gt;#监听验证(验证每一家机构的登陆)接口&lt;/div&gt;&lt;div&gt;validateLicense.url=http://10.78.63.11:84/authcenter/CXFService/authService&lt;/div&gt;&lt;div&gt;&lt;br&gt;&lt;/div&gt;&lt;div&gt;#健康档案接口&lt;/div&gt;&lt;div&gt;phsp.ehr=http://10.78.63.11:80/phsp/ehr/ehrpage.htm&lt;/div&gt;&lt;div&gt;&lt;br&gt;&lt;/div&gt;&lt;div&gt;#实验室信息系统，统称：lis接口&lt;/div&gt;&lt;div&gt;lisService.url=http\://10.78.63.11\:87/lis/CXFService/sampleService&lt;/div&gt;&lt;div&gt;&lt;br&gt;&lt;/div&gt;&lt;div&gt;#lisService.url=http\://192.168.1.133\:7077/lis/CXFService/sampleService&lt;/div&gt;&lt;div&gt;&lt;br&gt;&lt;/div&gt;&lt;div&gt;#社区接口&lt;/div&gt;&lt;div&gt;schssService.url=http://10.78.63.11:82/SCHSS/CXFService/SCHSS&lt;/div&gt;&lt;div&gt;&lt;br&gt;&lt;/div&gt;&lt;div&gt;#合理用药&lt;/div&gt;&lt;div&gt;passWebService.url=http://10.85.34.2:8001/PASSWebService/&lt;/div&gt;&lt;div&gt;&lt;br&gt;&lt;/div&gt;&lt;div&gt;#公共卫生连接地址&lt;/div&gt;&lt;div&gt;publicSCHSS.url=http://10.78.63.11:82/SCHSS/SCHSS/LOGIN/chislogin.jsp&lt;/div&gt;&lt;div&gt;&lt;br&gt;&lt;/div&gt;&lt;div&gt;#健康档案，社区公共卫生&lt;/div&gt;&lt;div&gt;publicSCHSS.ehrurl=http://10.78.63.11:82/SCHSS&lt;/div&gt;&lt;div&gt;&lt;br&gt;&lt;/div&gt;&lt;div&gt;#博思财务系统&lt;/div&gt;&lt;div&gt;#票据服务器地址&amp;nbsp;&lt;/div&gt;&lt;div&gt;bscw.billAddr=http://192.168.1.55:8080/YLPJ/BsExecute&lt;/div&gt;&lt;div&gt;&lt;br&gt;&lt;/div&gt;&lt;div&gt;#监听验证(验证每一家机构的医保使用权限)接口&lt;/div&gt;&lt;div&gt;validateMeduse.url=http://10.78.63.11:83/BISP/medUse&lt;/div&gt;&lt;div&gt;&lt;br&gt;&lt;/div&gt;&lt;div&gt;#双向转诊患者信息查询接口&lt;/div&gt;&lt;div&gt;twoWayReferral.url=http\://10.85.40.102\:9527/outline/getPatientReport&lt;/div&gt;&lt;div&gt;&lt;br&gt;&lt;/div&gt;&lt;div&gt;#双向转诊患者转出接口&lt;/div&gt;&lt;div&gt;twoWayReferralOut.url=http\://127.0.0.1\:8081/open&lt;/div&gt;&lt;div&gt;&lt;br&gt;&lt;/div&gt;&lt;div&gt;#电子健康卡测试接口&lt;/div&gt;&lt;div&gt;healthCardService.url=http://10.85.40.75:8081/soap/personalService&lt;/div&gt;&lt;div&gt;&lt;br&gt;&lt;/div&gt;&lt;div&gt;#医保电子凭证地址&lt;/div&gt;&lt;div&gt;electronic.url=http://10.197.17.5:8001/localcfc/api/hsecfc/localQrCodeQuery&lt;/div&gt;&lt;div&gt;&lt;br&gt;&lt;/div&gt;&lt;div&gt;#甘肃省新医保接口访问地址（兰州线上）&lt;/div&gt;&lt;div&gt;newMedPro.url=http://10.85.34.102:8888/SYWLRJ-SYBDJ/CentralCtrl/json?1=1&lt;/div&gt;" style="text;html=1;align=left;verticalAlign=top;whiteSpace=wrap;rounded=0;strokeColor=#36393d;imageVerticalAlign=top;shadow=0;glass=0;horizontal=1;labelPosition=center;verticalLabelPosition=middle;fillColor=#cdeb8b;" parent="lwKyXHzO9EQtF-tPuh2o-10" vertex="1">
          <mxGeometry y="40" width="700" height="750" as="geometry" />
        </mxCell>
        <mxCell id="lwKyXHzO9EQtF-tPuh2o-11" value="未看见使用菜单，暂定未使用" style="rounded=1;whiteSpace=wrap;html=1;fillColor=none;fontStyle=1;horizontal=1;verticalAlign=middle;fontColor=#FF0000;" parent="lwKyXHzO9EQtF-tPuh2o-10" vertex="1">
          <mxGeometry x="460" y="50" width="200" height="20" as="geometry" />
        </mxCell>
        <mxCell id="lwKyXHzO9EQtF-tPuh2o-12" value="使用" style="rounded=1;whiteSpace=wrap;html=1;fillColor=none;fontStyle=1;horizontal=1;verticalAlign=middle;fontColor=#FF0000;" parent="lwKyXHzO9EQtF-tPuh2o-10" vertex="1">
          <mxGeometry x="460" y="100" width="200" height="20" as="geometry" />
        </mxCell>
        <mxCell id="lwKyXHzO9EQtF-tPuh2o-13" value="使用" style="rounded=1;whiteSpace=wrap;html=1;fillColor=none;fontStyle=1;horizontal=1;verticalAlign=middle;fontColor=#FF0000;" parent="lwKyXHzO9EQtF-tPuh2o-10" vertex="1">
          <mxGeometry x="460" y="140" width="200" height="20" as="geometry" />
        </mxCell>
        <mxCell id="lwKyXHzO9EQtF-tPuh2o-14" value="有使用，有功能，但是打不开" style="rounded=1;whiteSpace=wrap;html=1;fillColor=none;fontStyle=1;horizontal=1;verticalAlign=middle;fontColor=#FF0000;" parent="lwKyXHzO9EQtF-tPuh2o-10" vertex="1">
          <mxGeometry x="460" y="190" width="200" height="20" as="geometry" />
        </mxCell>
        <mxCell id="lwKyXHzO9EQtF-tPuh2o-25" value="使用" style="rounded=1;whiteSpace=wrap;html=1;fillColor=none;fontStyle=1;horizontal=1;verticalAlign=middle;fontColor=#FF0000;" parent="lwKyXHzO9EQtF-tPuh2o-10" vertex="1">
          <mxGeometry x="460" y="230" width="200" height="20" as="geometry" />
        </mxCell>
        <mxCell id="lwKyXHzO9EQtF-tPuh2o-15" value="" style="shape=image;verticalLabelPosition=bottom;labelBackgroundColor=default;verticalAlign=top;aspect=fixed;imageAspect=0;image=data:image/png,iVBORw0KGgoAAAANSUhEUgAAAu0AAADBCAYAAAB7T44DAAAgAElEQVR4Ae29+5dlR3UmmH/BdP8yy9O9pr1metljPGu5293G0yx6renlthvajc0Ypo2NmaZtvFpYbsA8hBEPmZGQ0AMERgYJgUGFClQl9C4h9EalB6C3MEjoUSpJ9cyszKyqfFU+bj72zHdufjf3jYw459yb92aee893tUIRJ2LHjh1f7Njx3ahTt0ZG5xqmJAzkA/IB+YB8QD4gH5APyAfkA9X1gREtTnUXR2ujtZEPyAfkA/IB+YB8QD4gH4APiLTrTxr0Jy3yAfmAfEA+IB+QD8gH5AMV9wGR9oovkL5d69u1fEA+IB/orQ9cffXVIic6++QD8oGB8wGRdjntwDmtCExvCYzwFJ518wGRdvl83Xxe8x0OnxdpF2kXaZcPyAfkA7XyAZH24SAwIqJax7r5gEi7DutaHdZ12+Carw41+cBmHxBp34xJ1f3krR+92u7/h1d1Xomz1NoHRNq1AWq9Aap+UMm+wSMXWrPqr1kRaX/PZ79j1977TBYb/4/3XBaNkZ5EpmTgC5BDDsIJvfQPPwbrinKM88/fdl7Lttmr/pOd+dxvZmn85aezMdCO5HVhLqgbRNJL2zkv5B+76vZsPr4Oc4vVe5nP793fhgue0QdYpdbD1/s19/hCB/X4epWrHwsGbY1E2kXa24LYoDmw7FVQlA/IBzr1gTzSDvJHog29MUIWI5Ipcuh1kSQiDwlkmTn4LwfTN3yoRdhB3EHgqcPL5dnajQ0cYztzrAHm4bH05Zgt4ZekmEyIU6gTOvy6hmUS9ZiPxMZTnWLVVn1ApF2kvRXot+pM6q+AJB+QDwyCD+SRdhA5kDU/j7DOkz3Ihc+oA5HzJA+E0D+z7McpKvtxQNRnvvXuzE4SeNy2e3tAyjEOcn/LD9tCglo09k62Y97Ei/Pxz6zzNoLkk1T7epaBR/ilJazzeKMfMAt9A/Ui7Yp79Kt+5yLtIu1th1O/HU76FdzkA/KBnfaBFGkHKQuJHGzljSvykIyH5JHPkEXqlBxj/JAsEi/Wg5yDtJ++48Isfp/a/9XsefLJW9pIO/shh17alkdmfZ8qlGN/UuBJMjGJyXG+Puca+i8xfp7QB6w8Xr5/WOaXA8h7PSorzvXDB0TaRdoVaOQD8gH5QK18IEbaPRHEYQuyDULmD14QNpA+X5dXBjFEn06Je0onCWpZ0o5xSTJhCwmm/+LRK9tSNveynrYSB+j2ZT8W5htbK2BAPZAP1x11aO+EhENHJ/LeTpVF7jvxAZF2HdalD6BOHEuyCkTyAflAVX0gRtq9rSS3vs6XQQZJhsOchBA6QBxJAJGHsmj3eovKnqCWeT0G+tAnHJfPXl/R2DvdnjeP0DasD/DmGoTt/pnr5et8mViFucdOpF2xzvtMP8si7SLtHR0a/XRG6Vbgkw/IB7bDB4pIuydyvKH2doEUpgg3+4LIkTz6vlspe6KI99lB3Jn4fjv0ezk/XtGXES9btXInpB2ywD4k7VgT1HFuXCs846Yc7Wxj7mVYhzxV72VUVjzrtQ+ItIu0bwpSvXYy6VPgkg/IB6rkA3mkPUbGUOfJXhnSzvnG9LEtloM8pkh3WE/CjtzrCuVgA/SStIOchjK+fxXLKXvDetyIc62Q+y9XKGPtML+QwLMuJO6p9fP1KIf9qoihbBr8OCzSLtLeFuy1qQd/U2sNtYbygXwfSJF2kLrwNQj/TMKH3Nf7sidzWAc8gzx6GV+mzjJrFhLUVB/KgUhiLIyPOpT57jXn4EltSl8V6mm/x45l2EeMQ1spg5y4AANfH5aJEXSFbXymrnA8PefvPeGzNXxE2kXaRdrlA/IB+UCtfCBF2ssSChDeFNmNkfayeovkSFxBUGOyJOIglrF21XVOmML1JIaperYr7xxrYVaMmUi7DmsFd/mAfEA+UCsf2CppF7koJhfCSBjJB3rvAyLtOqxrdVgriPQ+iAhTYTpoPiDSLp8dNJ+VvfJZ+IBIu0i7SLt8QD4gH6iVD4i0iwCJBMsHBtEHRNp1WNfqsB7ETSqbdbjIB+QD8gH5gHxAPiDSLtIu0i4fkA/IB+QD8gH5gHxAPlBxHxBpr/gC6Zu1vlnLB+QD8gH5gHxAPiAfkA+MHJxeMiVhIB+QD8gH5APyAfmAfEA+IB+org+MmK2ZkjCQD8gHts8HTB8hIASEQE0R0FmzfWfN8GE9srK2bErCQD4gH9guH6jpSa1pC4EMgcbakm2khi2v+bRs2X9ry1l9Y61hTJmcNbL2rG51yZZWF21xZSHLG6tLTV2QyfotGeog08hSc9zmeBs2LNmSLbXZtJjZt7wGfespGxdjJ1I2hw15zA86F1eXbCGzAeM1bGWtUXsv2K44q3GG80wfeezwkikNBwb3HZk1JWEgH5APyAfkA/KBevmAeNxw8LiidRwxfPFVGg4Man+HIQCEgBAQAkJACNQQAfG44eBxBes4smxmSsOBQQ3DlKYsBISAEBACQqD2CIjHDQePK1rHkWfHZ01pODD46eSCKQkD+YB8QD4gH5AP1MsHxOOGg8cVrePI8xNzpjQcGBycmDclYSAfkA/IB+QD8oF6+YB43HDwuKJ1HDkwOW9Kw4GBgnS9grTWW+stH5APyAfkA/AB8bh6YDDyyLE5G+T0+PEzbbfLPz52ZqDn0+u1eGlcAa2uh5r2Qntse358I1b8ZHReccLF/qdHN7BBzOh1HBp0fT6G4MzZ6fnAf2kT/Hqn7cH4tIe54k86/hCjXuYvT8yb0vBjMPKnj07ZoKY/+tFpe/NDp9qCxb/5weTAzqfX6/C6uyezYN7LwCBdG4dl1bH4F/ec1F5Yj2//6r6TdsPB2Vas+Pgz0/Y7D54SPo9O2e8/3MSB/gwChtjR63g0qPp+8c7Jlt8AI5w5OHt2aj7wW/gv1wt+Df/eKXswbogRbFP82eBWYfzh2vU0xwWd0tBjMPI/fm/CBjmFpB3PgzyfXtseuwHpaaDQe/Stw7NquOLQ7LU/DbK+kLQP8lz6YTv9FzFDcbT9XCQ2yKuCDW2CX4M498MnOtFJe5gr/rT7kI8/xKinuQj70BN2fCkTaR/wLy1FQVWkfXBuxnsawNdvuor8o07t/tDETWWd5l5mrvQ/kfZ2sgXsiA1ykfbN+IQYASeR9nacfPzx/qRyfc/obtZepF2kve1A6saJ1KeaQUeHZvrQFGlvx8aTLpH2NDaIdSLtm/Hx/sPzQPGnHSeR9mqek/TXQclF2kXaRdqH9BUfHZrpQ1OkvR0bT7pE2tPYFJH2t974lO3atcv+zS0vFv5JzkXfvjkqg/7QgzXJSyQZIIPD8HpMmX8d6cnTy22Y/P6Ppuzg3Eqr7u9fXbA7x5Zaz8APdUgsp8bxelIyrKe+vPUJ2/pO2icX7KDS0GPQIu1wWGwA72ifeHbOwk3iN4CXxUbxTu/bwo3FNvQJNxjbyua49WDwKgqoXidsCj+w/9TSWlidnBdkvc5YuZ+4xsYL6/R6TH2/3XdK2lP7tIyfI1YUySGWpGJE6Ld8ju0ftKVsZb9Y7g/NTkk74l4YCxG7yh7eCCrAKGYX6qAnjIWx+Bvrj36hbTG5ojrG0W5Je4hR+MzxfYz1c8YcyuCJPr4f9SJH/5iOlC2+b16Z2BSdMVdcuycj7SDeeQmkHsT8hltva/OJc6+7w86/+X7bt2/fpvM4tI825ZF22PDii80vEO++/pGoTQ8//HDmm7Dpmn13b8KPX0SK9i7tYd5p/MEe8XPEeH7PcA2x9mU/jEmhLj8OyhinaH7sU9ZPKc/cxx9i1Mv85ckFUxp+DDLSnjoAsTliATDcAOiPzQFn9puMzoocuvymwHMvDppuSbu3DWXMgZsRtrE9dXAygFAulm8HrrFxfZ1Iu0i794e8Mnza+z5lefDxOZVj/6T2NPZRmQ9jBMbk/kHOMWkj21hfJveHZj9Je9m5Ag/ODbiFsTMVe2JzBV6xWB2TTdWRQHRL2sNzAeMwpvox6U9og7+lPvQF3xdl9In5KeXoO8jzPiHe7B/LiQ3y1OsxINwkyalxr7/++lYTxvnmnfvtjh8+kfn3+/bcZ9Dx9GvHbe89D9qN37+n5fd5NuWRdvT76u69GXEHab/1/ofa/Cysgw3ff6BdBv3vf/DhTX1DmzxGKPeLtHPcmB8wPlCGeVG8gC94fyvynW72mo8/IVa9eH55ct6Uhh+DkZhzIpjGPj7IoR83BGSxKZBYZlteUOYYfrOwX9l8K6Qdc+Chyc0eHpSshz2ws8wHOvqNa1l8RNpF2sv6SrjvSYz8Xocu+HcnH8aFUI+3y+8zlGMf7D/KQWenccMfmlsh7ak4wPgYxhA/T1/28SeMF9AR01MmnhK7PLy9HSyTOHRD2rkesDnvA/tpF/LYHGEP9aGcwtuP430hphN+A//mXDvNiQ3yGGkH+QXhxc153g07CLC3FXbArq9+99aMsKN87Z692W07SPu3b26/ifd206Yi0s4+RTftlMNrOweOjGZYofzUU0/Zn91/0P52zy1ZGWtDWZ/THubdkHa/prEy19D7B22Ab7GddWVz+Ey4Lqm+GAP+lGpP1fv4Q4x6mes32of/N9qxxtlNO5wwthGLnJgBGn150KKMD9rgvNhISHTkMHjGNh9ly+RbIe2wkQcIbIRtoT3AhnMBHiynbPMy/cQ1NX5YL9Iu0h76ROqZewHt2AtIKKMeH+yNsG+4X8J2PHNPZEpy/sc44eMOyn5c2AS5MuOGtvhDsxPSjn3Mj7ctjA3eznDsvGfEFOiiDOMG45NfF8ogJxa+bitlEohuSDts9nOgHeH6oR7z8bZDJvah/4U6sP70FehL+QJkUp8UprQ7zIkN8hhphzzGu+bGW+2Z515IDWu4acd8+BoNiTRy2ATCj9dR8PnGTw5nt957b4kTd9rUCWkvumn384YtJOz8EwR86eDrNF4WZdrDvBvS7nUCJ3/ewh/oY2ijLLBCW+zztVc26ulP0BH7cLxYW6qukz3v4w8x6mUu0l4j0g5n9Rsi5aDTjebhjeCCAMXAhzI3EZ0YOrDh8gInx2FfbsJO8q2QdowD+7CJYQNt57zQ7suQwZyQwg/nQBn0RblfuJbFSKRdpL2Mr/DQoyz2BA9M+Dr2Bj7YL5RBDhn6vq8Py+jv91LYjvGhm+OE+4vPsItyZcb14/hDsxPSDh1+H8MGPhMj2IJEPGhvUe7jD20lTtTFteFYlENfJD5vNSeB6JS0c82AS2gDMEG7r8f8iKGvT5VDHeG8oZ8yxDvEiuuVGqOontggT5F26MDNdNmbdpBfkGLYhhz9cKONzyU33JkRe8wNWEWxXf8L9CnSztd18H48MOMXhNA+2PGZH7/WsvuHjzdtwW17+D477MMcY8TdY4Ryp6Sdfs+14H7iM9eQ/sa1Tu0P+gT6Y/6QQznme9xrHCvMQ9vC9jLPPv6EWPXiWaS9JqSdzswNQefzDs865t6BGYDRxs3EzYG6MMCG4zDgUnen+VZJO8bDHDBfjs1NjY3sgyWDSLjB/TNl+o0rbS3KRdpF2ot8BO3wW/ounsM9Th2Q8fsb5dQHe4D9GBtSsqj38uyH8dCXzxgPct3EDX9oboW0w1bY420jLj5e0GbkYdzzbcCaePt5hfEH43osMFbqg75+jDJlEodOSTvmDltic/cY0QbOFTnWMvWhHHQUfSBD/Sjn6aWumL9RR5gTG+R5pB39vn/3vXbvvfdymE05bcXrNHifHWsFQk2bQarRBrnb7ron+Us0tClF2mELSDdesYFujIGb9i/d/oD98KfPt/ACuQdRh2/5V2NQv2fv9a11xS075uX3v8eJ9jDvlLRvAipSQR+DrfQP2oA2v6bAj/sF9bQbciyzr8/RBx8vg2e/p/Ds+5Qp+/hDjHqZi7TXhLTDscMPnDX24QbgZoETs44BB86LOm4u1sf0sY5BrIzjhzK9IO2wlXOi/XiGXX6j8hl13mb/TBnk4aeXuIY4pJ5F2kXaU77BeuxX+i32gt+/kPF7g32YY39zr7MOOer8occ27Am/p1jvc7THPrAROjEmbfb9isr+0OyWtGNsJIzlcUEZNvk6YgpZ2B3DifOBTpSZ0Ac4xPpwnsSDz8xpC5/L5iQQnZJ22Ohtxfipj8cI/fAM+/z8iS/txjwpR1kvgzbIeHnY48diW6y/b0uViQ3yPNLO2+3wNts/cwxP2lF3zXV7s9tu2I0PXrUheWcfn9OmTkk7btX//jvNv5wKu3jTjnE9af/C3Y9mGPK2nb9Cg3fbY35Je5h3QtrDNcQ8/f7Bs99D3r/8noNf0DbvN/Qv6EE7dHksqR9ysIVykEXCB/rQDx/6V6gj79nHH2LUy1ykvSaknU7mNwTrmPuNgDq/SejEkEEbnBkf9g3zvHFC2TLPWyXt2KCYD+znHDAuN6u3gUGEc8wmuv4/tEGWMuyXN99e4srxwlykXaQ99Im8Z+wF+DAPLsj6/R72RRt8PKyPHYx+v8TK6AM92F8s0xbUoYyxsG9ih3xoQ/jsD81uSTt10h4+xzDCHNkOu8MP5sN2xiFf53GgHHPI4+PXiW2wJVbP9lROAtEpaYe+lK1cPz8mscIaox/aWOb6evlQRxirMVePG8rQS4xC3PHsY70fK1UmNshTpB0EGKQX4+NGemxsrDU0X39BHedP0g4CjTJ+chEfvJYCXSDLkI3tL9hJm7oh7fiCgHflw5tzT9phD+zg6zUYE88k7yFWtId5J6Qdc+Sep16uI59jMmyL5X4fYL3ZH+PEMKUMdaE/1wo52r2fUa5s7uMPMeplLtJeE9IOZww/cGh8EPhQDh0VfVjvnR+bwcviuZNPWef3clsl7T4wcINyc3KeHI+ywMXPk+3IKdNPXP14RWWRdpH2Ih/x7fB97gPWh8+sj8myjfsAz4wnjBXh3sGzr8P+4gGOepCvcM+FRI3j5uX+0NwqaYddnA/GDDHinGE3MeCcUjZCp5fxOIR9Qlnfjpjrn8uWSSC2g7TDRo8ZbQZu8CvYzLVHXvSBDOeJMrCDj/gx2A79HIN1RTmxQR4j7Xj1hF8SuIbX7b0+I7kk8xiT88R4/MuouPnGB+2QRT3sxwc6U7bRprKkHV8MoB+JeOFPBm65rfnOO8YBacdfpIXM/Y8+2fJxvg/PfjGbaA/zTkg718zrDevgG8QWcsQIOKHs+6KMD+uIPf0LOduYczzKep30o1gb+xflPv4Qo17mIu01Ie10NL8hECj8hvAOjjI+fvPQkb0c9Ya5Hyds6+Z5K6Qddvt5YHxsTl+HuXJe3NR5doYyfr79xDVlk0i7SHvKN8J6+C72BPe+P7RCWe75FKnAvmEb9w91UH8WSNz+8u3cg7AJZXwwJmWgG218LpP7Q3MrpB12hGPzUIcdsA0fzhPz93EgZivliWtMhnUY24/HeuQYM9Xm5WJlEojtIO1+fMydPoKc68x5YL70JfRDO2XwHPoC5OEz9JtsMYL/+f7ellSZ2CCPkXb0wz9MRFKMnDfnGBq302Eb+vBDAk/fCf0rZhdtSpF23pRjXNz0f3zfj6K/tc532vGXTCGLX7jh/uOrMeGNfJ49tKssaQ/Xj7qBAfzZryP8Iw8j4oncrzF1QTf3pZdFGTLQT+y9HOu8begDW1hXlPv4Q4x6my/YwQmlYceg9S+iwlm5Ub3z0XGR+3qU0QcfvzlCmfA5NU4oV/a5W9KOzcZDAWMxEMTmCTlu5lg7+kOGH297ar69xtWP6csi7SLt3h9SZfhv6Ns4qGKfQ2ea9V4XYwHlw1jCeuThAegP5bANz/5g5L6Bnk7iDmz1h2a3pJ1xAvpYhi1+viGWPjZ4HFB+YXYzltCd+hyeX83FD/2wFn5typZJILZC2v1axuYALJBgE9fS+x3r0Jdyof1Y97y1R1/YgfWJ6UDfTjEiNshTpB12hnvG2x7uEd+Gct6cQ1k806YUaScZBw7+C0Os7Ik6dJPw+1djYjb4OtrDvCxp9zqGuezjDzHqZf7KxIINR1pszQMEfDjm1Lt5tEj7oG6Wbkn7oM63U7tF2kXaO/WZYZX3h2anpH1YMfHzIoHII+2/feV+O/ecL9hlf3Fe5dN1H/q0zX/usy07T11ykdkXLs7S/eee36ovM5dTF15gTLv/6m866ltGfzcytOe58863Wz/86R23ifYwv+q/VwOnbrDtZR/sl39/1YNtlwbca73MB4/cgpwrdYqBSPv3Jrq6lfKHXZXLIu0i7VX2z+20TaQ9P9aRQKRI+xf/27lmv/iPlYSBfKALH3juU/9v609HuNd6mb88sWCDnRbt5YkwNV/3yeY1vmAHlZr/Iup2Hpy9Hks37fkHsUi7SHuv99yg6hNpz48VJBAx0v7mv7tPRK0LoqYvOfqS533g6EOP9Y24H5iYt8FKC3ZgIpYWm/XjC3YgmubtwHh909DdtP/W/pNDfXPeKWESaRdp79RnhlVepL08af+3P2iPo/gjfpKPl1//6zv+KkYvX18oo4uvfCCv4usx131w519F8RihrNdjmq+QvfKv/0Vr70xceWXfSHunr1lUT37JXpmIpfVXaMYX7RWlwb9p//Q/TLdtgg8+Vf5vcw8rOfHzenr0TBs+vE1TPvxkXnuhnaTef3iutReueXFWX+6DVwMZExAz/vTR9jh62dnntYgHyj7G1KFMbJDjzKnCnGkT/Dpcr52wj/YwV/xpxh+/d05d+JlWDCJOvcoPTS7Z4KWGHZps2KEJpmU7NMHEujBfskMT9U0j+8cnrArpgfEJa0/j9sCJIK3L7J+YNKYHJyatlSoyl53C88ejZ0xJGMgH5AO99oEjF1zQIu0o91q/9Mlnh9UHtmvv7BTv6Hzccds/vp4mxm3/xDoHRZ6VJ23/+EbK+F3NuZ3HeGRyZtV2Mk3MrFo0Ta/YxPSKTU4v2+TUsk2iPIO0apOza3Zyds1OIc2t2em59fLsqp2cRftGwnNd0tiZZVMSBvIB+UCvfWDu0otapB3lXuuXPvnssPrAdu2dneRxnYw9MbNsSJOzzXRydsXaU304WzfcdGRxyWzH06LZYiwtrNniwqotzq/YwuKqzTfW7Mx6WmyYLS+brSybra7neG40zJZqmrIf+tX/hIAQEAK9RgA/lci/iImyPkJACJRDYJv2zo7zuJJccmFp1RbX01Jj1RqNVVtorNiZpWVbaKzaUmNtPTX5HDgdU125nZ/3SDmv2wEp/FtFq0hrZisoNP/xomb1xj9ktAOWaUghIASEQL0Q2CbiUS9QNdtaIKC9Eywz+FuYVmzV8C9fg+vpk4fAyK5Xx23n0oTtejWRXhm3XVk6YbsOjtn1L56wfc+N29eeOm13vbJo3z04a18/cMr+/sBJ++aBk/aNA5P29QOT9rWXJu3qIKGumSbWcz4PV/6dF0+bkjCQD8gHeu0DP/3kp1s37Sj3Wr/0yWeH1Qe2a+/sHI/rjENe88op2/XqSfvWq6fsW6+etF2vTdr3Xpm3b704bbe8fMaueumEXf3SuH39wIR9DZxunddtcDjwuFQaLk63wV035jUyv7ps1UkrNr/STGdWlq2ZGnZmpWGzK8s2vbpi+w7O22vTi3Z0esVGZ8zGps3Gp9bsxNSajU2t2WhOQvvY1Gom1yw3+wxL+fh0w/qdzjRWTUkYyAd66wMgLP3eu1vRP3vxxjvtKG9Fl/rmx2n4gvZXb/fXTuLZ+PxnW194Ue6XLdXhcfmccm7ZbH7ZbHHF7MyK2cyK2dIZs33HT9v0lNnhjMes2InpNRubXrNRpBavA38rSsPF60J+OjLfwLviO53WsvfV8c66T3x/HflsY8WmG8u276Uz9trpeTsyvWzHZ81Gp7GAy600Or1soyD0WY7yso3VJG3HYRgLONfefr8pCQP5QGc+4PeSSHs+kd2O2FaVMUTah4ewY49vG2nfcR5XjkfOLa3ZAv7e4bJl+ZmG2dzcou159ZRNnjQ7NrNoozMNG59ZsbGZFTue8bkNTlcXPpea54g/OAahXPXDrSqBv192xHwEZG1iaVVJGMgHSvoA9ozfS1WPa7pp374vFSLtIu0+NtSlXPUY2CtOhYvk40E6Nr1sPmGs0Swt2djMkk2cWbWTS2Zjc2sm0r4Nr5T0arGroCcWQEBADpyYtrMu/55dvPeHWfm3P3Kt/cZZV29KX7/zGUNCG3L0u/3xlw3yKDN97Gv3tXSxTvkGPsJisLEQad8+ElyFuNmJDSLtIu2xc3bY6+pM2kHiN0h7MzaOTi9ldYenV+0YCPzUgo1OL4q0dxJMJdtoux1kEAEBeWVi1t77he/ZJdf/KCvjmekbd/9DRtLDtj88/wY79+vNvpD5nY9cm/WBHHSxv/INLIXFcGAh0l490n7f06/aL73tU4Z8J2O9SLtIO8/WOuV1J+1N4t5oEvTpJRubXjQQ9penzF6dXLDDYydt9OSMSPtOBudejb377qftzy/6zqaDBofPG95z6aZ6jot+OKT4XCaPBZG/vPyGTTfqhyZnDQlE/B3n35CVWefzu558ZVNff0P/8a/fn+zr9ajcxFs4DAYOIu2NNoKMOBWS5Y99ZV8mgxiVlz6/54FWDEMZ/cJY9tZzrtqkHzEzTy/b0Bf6oLes7nB89MuLxV5epF2kPXbODntdnUi7/zuXozN8XaZ5kXFsijft+AlMs//8wUvtuz942l6bmLWXT+qmfVNw98FzUMo4EPzBhcOPh1TqoIA8D6VY7vV5HGKBAwRkbHbJ/sM519rlNz2WlT/1zf0ZGd/9g2ezZ7Qz/dFnbrS//Nvvt55Zjxxt9//0cLTNy6m8gaewGDws6k7aEbP8RUP47GMOy7FYBh0+ViHueTIOvWF8w2UFdEKOZT9G+OWBbdCFhGfopBxjLepRLoqt3h7q4xjI+0Ha3/bXX23h8Ohzh6J/YhqL7arb+heI7fqLqIO+VnUm7Xh/vRUDpvBazIodm1mzUxMT9pYP/q3d8cwxe/VUw669777ybhcAACAASURBVGndtLeA8qBVvDx98ecNCbbjIAsPgdhBBRkekjzUYnPHgUO5WHssMICA3P+TVzOSDuL+yW/8IHl7/kcX3GCjU2fs8ht+nJF8lH1CO3T5OpXbMRIeg49HnUk7yC7iURhfUEciHLbhuYi0oy9lfBl9Saw9UWfZx8+wjFjKP5H0bdSPNurG2PwCAVnOAePEyDnqYvVlSPuXb3jQkMJ4DELu7WT5xgd+skmWOtBGXX9xyXVGUg+iH+pH+99cffum+lDuje+5LJOBPG3wOceDrphtob7Yc8w+6IJOzIF2+jFifWK6e1kn0l7ui099SDsJOm/Ylw237VnCLx3ONLKfNH9tetVePGb2lnO+bP/2//lre2nW7OxLvyPSzsA6KPnSG95o82//wyyhzAMJOQ4MpNTBBRm08aCgHOeO+jzCDrlYMAMBed+Xvm//4ZzdWfrjz9xoJ+cb9jfX7Le/vfkxu+6B57L2B589kuVo8wn9/CsxvuzlVG7HTXgMLh51Ju2e3DL2ICc59nW+HMYrtJF4s0wZ1uPZk0WWMRZlwjH4xQGxlLGS+v0z+5G085nz4Fh5OfqyH/MYaQfxzNODNhBkxOciOZJyknb0IZklaSfRLTNuinSTuPszA+Nw/Jit4XiQ93W+7OdJnSTt0B3Oxc/X29Tvski7SDv3NvKNW/UN0n58nbSPzS7bidkVOzKzbC9PL9tv/9cr7S3nXm3n7/2xvePcr9ivv+M8kXYP5iCUJx56zEjcaS8PKpJuEm/eBlEuzHm4UC52IIV9YgHukm/dYe+88EZ73xV32pduedw+vWu/7X3w5/amc3bb1OJy9ox61EEGdUgg5ywzh55Hfn50Uz3blTexEw6DjUNdSTtiFeNTGFvwDKIMMhZrY5zzbSC9iGOIYegHGTyHZJjE2hN1lD3xS5U5LtvRD/r4HOYYnzayL5+R0xZf58sx0u7jLsgnCCkSb6x9O8uewLKOOQg17UaZstCJMnLIgiRzDLZRB9sh7+t8GX05js+h1yfq8OOBiPPLBHTCTrR7Pb785g9c0daG/rAZfaDf6/I29rss0i7S7ve3J+3NX4xZseP4TfpZ/BY9fiVmyV44PmN773vS3nXON+33P/x3dveBGXvHOefb1dfvE2n3YA5Cee79H8pejWGOA4KHYHgYkIznzYsHF2Tz5NgWC3D4i6g3PPS8feCKO+3Ltz6RBfDzv/Vg9gx5kHPkkEE9ypCDfKjvTy68yX78/LFN9aGcnssFQuFUTZzqSNp5qcBYgpwk29f5Py309TECDNKG2IU+7IdxSOYY3/iMnJcTaPMEm/YwFkIfZVFGfKVuPHvbWIYMdUIGuvzYKLOdfcI8j7SjP4goyDASyqjjPgcxDccLn3kDToIMchvK4Bm6yuiDHo6PnMSa+kn6SZrx7PugXETaYTNv0zkW9SFnm9cdmxPnTh3bkYu0l4vBdXs9hoT96DRI+6qNza5a9jOPp+bt4PiSfXnPfXbB1+6wP3j/F2zf06/Yc1On7MDMrEh7GDAH7RmHCEk7D7VYsEId5TBHyKbkUJ86lGJBDgRkcdXsr/7uLvvKviftpkdeyIg66y649qGsHW0sUxa5fx0mLKMdepSEwTD5QB1JexhbfewK22LPjG8+dvmYBoJMGfT3lxi+TN2oQ5zLi4Mk7dCLMp8xbqofSLm3EXLsR7tQh/Fpi89jpL0MeSaJRYwGeY3ZB5LPGM52EmbWIwcJ9vpCshsj0b4/yXPKDhB1JNrAHGOij7cB9rE91gdtJO2wC8/U4W1COZxH2N6PZ5F2kXa/v1nGb6+DuB/FP7S0/q+/Nm/aF+2MmR1ZMHtpdMHe9ald9u0fHLKb9h+2/+3ff0iknQAOcs6Dxx8MmE94iKGOwQ+HSurGBwdSp6R9aXUtI+2fufahjIQ//uLx7PldF91kaENC25X7njC0gZyz3ueQR7uvU7mJn3AYHhxE2tv/YmlezGFs9oScdT5nvCNBhzzKjHnMSfTRjj5IJNCoY+xDGX0QJ1HnSbsf15ehJxZX/RhePlaOkXaQyRQBho2epPL2nfP1OUk7ciT08+ScpJWkPW9M6I31pa0g2Kn+aONYkEHCM/ugTBu8XIq0g9ijDXNiTiLP/shF2ssRaI/ZdpXrctPOPd8k7U3ijt9ox89A4i+hnphp2MHJhv30eMNmZhv2pvddYd//2agdX1614wsNkXYCOOg5AzMOB84FZRw8fPZ56nCBTN4BGtvAICDLa2Yf/PJddtW+J7PyZ3Y/ZCDgqH/zRzf+oimefRuefUKfJ18abavz7Sq34yU8BhOPupP2WPxB3IkRXsatVCxjO+MdLzFIztGO8fJiI9oZQ0nWvTx0lCXtf3Hp3pYu6kzlsTlthbTzphp5SFrx7Ek7yTLqY/ZBB1KszddRpz8boJsEnIQcuiDDNsqDSCOxnvKwC33wjDFQTpF2tEGG5B26vY0si7SLtDNe7Fg+1TD8FntG2l35+NSSMR06vWIvn1yzmZkF+72PfNVue/KQjc41bHRuRaR9xxauhz8riYCEww7JHwI8xGJz9IcUA5rPedsU9mWg9TkIyJqZkjCQD5T0gTqTdpBfxhcSbB97wpjDZx/bWOdzH+8Y39geknbYAFJPgs4vC3iGHrTBJshRB0k7ZL29YZm62A/tmCdsgF6vkzI+T5F2H3OLyiCxoV149gQbZJgEOdRHwuzr0R+kGQn6fVtYhiyJOMdAH9rFV3JgD/ShP8ro4+3mOOzrx2Gbr/Ok3dezLNIu0u732k6UM8KO32JfTyDqzfKiHT2NtGDHplft2JzZzPScvf0T37SbHjlgJ04t2uj0mkj7TixaL8fEIeMPidghyCDoDz0cIL6ftwkHCw9VX48yg5/PQUBWbU1JGMgHSvpAXUk7CCvjEXLEGh9jSJhR5+WKytBL0o44h+e8WPjv/uLytpt3knwfI2kDbYROJG9vWIaed513TZvtkIFtaEMZOvx8Qh0x0k6y6/uFZU9iU/Ix0p53e+1JNGI+ZEHCQY45vh+XMmiHHGViuSfsPE+oH8/84kD7UnOibsiTtKfGFmkXaQ/323Y/N0k7f6u9mZPAH5tqEncQebwqg8/v/bfz7MGDC/bLv/On9ktvfq9I+3Yv2KCPx+DqcxAQfYSAECiPQF1J+6DHv+2wP0baSUyrmvvzoKo20i5v63aU9RdRy31RgN9vx/6q3hj4vXa+LtO8dR+bmreJ07N2Ymohe9d9YmreTp+aspPTCyLt1VvA9m9gVbMvFuRE2suTNUkKASAg0l7tOLeTcTdG2mNxV3XlyOBO4yTSXm6d6kPa2/9RJfzDSkgbfzEVsXHJxqYXm/Uza9nvt49PL2R/SXVkpx260/Hrs7DVPNRi6yXSLiIqBDpDQKS9mvFtJ8k6xxZpL0fyYmdRFetE2sutZ324HUh78x9Uwk89js6wvE7eQeBnVuzo7KodnV2zo3NmR2fNjs2u2bGZVd20M1AqL3eIxoIiCIiSMJAPdOYDfi9V/cCavfgis1/8x1lCWfGyXLzsBieR9nIkz++fKpdF2sutZ9VjYDd7OdbnGP6iKdIU0uJ6aj4fnVqwo6fn7SjebZ9asiP//6/5HZlezvKj00tZvW7ae/grLrEFGra6KgdH2VYuOAqn6uFU9QNLpL1/JD08I0Taq7c/txIzRdrLrWfVY2C4T7t9Pnpy1trSqebzkZOz1kwzduTUrB05dcaOnJ63I6cXmjmeT83ZCIBSEgbyAfmAfEA+kPKBJy/9YuumfeJN/85++slPKwkD+UAJH8B+4Z9SPfbFr4pv1Zxz3vTcrN3081iasZt+zjRrNz0/Zzc9f8ZuemG+meP557N6Pabbb0tV6TeGnwbaxrS01DCl7jHYyo2N+pa7sRlEnECWqxJTYnZM7n+4RTxIQJQ3XxcSDsKhlA/88i/Y/NGj0Z9NHsSY1Wubqx4DY3Gxm7qjMw1LpyU7OrNkR2cbdnR22Y7OrdjRudUsPzK7bEdm9C+iVvqgLOMQ20nYMVaMsJ999tmmVA8MHnnkER06jd5/eRiEA2vxnW8TcV9/r78USZOs/MX5wNJ1uxU7c2LnIMTAMpysSObY3Jo1E/4BpXgCQT8807DDM8t2OCs3Cfvh6SXdtBcBXPV2kfZ6kOUqfCkCYT9y5IgOnpyDp9vbp0E5sHDjPn3lV2zm4guV+oQBXj1qfO6zSkOCwdKuv7f5gwcVNwvi5qDEwC1zwnmz44k0Om+GdGR21V6bWrLXpht2aKZhh6YbBsJ+eEqkXTftHb5ak3fT/urolCnlY3DgxLQNagJhF2nv/S07iH5tDiz9xf/CMwe+0O2XP/Xrz/4Urv3HtS4xcHR21Y630vrPPc6u2KhLx2fwjy0tZa/DZLftM/gVmWbSr8cM+CFSpZv2QydmTCkfg1cmZm1Qk0h7/w6uuhxYW76lGvB4XWb+Iu3922ci39XFti4xcHRqyZCOTy020+lFO3560UanNhL+YaXx2UU7Ptuww7MrdmRm2Y6uJ5H2AT8EqkTaj0zMmVI+BocmZ21Qk0h7/w68uhxYZUhr3WXKkvbzv/WgffnWJ6K38jc89Lz9xllXl0qQJZn9kwtvyvr4OrSh/sfPH2vJUV55/2JC3bCtTQzMCDtIuyPuGYFn3ZKNzazaCfyjSiem7fTJGZucnLax8SmbODmjd9oH/YD42Jdvs1/5g0+0pT+/8Dp7w599rq0OMrvveqrtl2bw/NaPXJ3V3ffUK61y3heBvNdjTkw3DOlHP/qxPfHEkza7sJI9+/q7777HGo3ltvo9e/baU0891ZLH89qa2Z133mVPPrlRH9Oza9cuS6XR0bFo20MPPbyp/t57743aNTY2ltl6yy23GvTRhm7zsdklG9Qk0t6/A7o2B9aAX5J8fs8D9ktv+5T9+UXfaXvNBfUf+8q+tjp/tkD+redclWz3sr0i7R+44s4WyQaBT5FAT/D9lwBP1H05pUf1/YsPdcC2NjGwjbTz1n2DsB+bbtjorNnYvNmnvnKH/cv/fIH9yts+bf/LW8+zX/7D80XafbAcxDIINgg6ck+8WUcCDiLfb9I+cXrOmEC8QXiRp0g16l988UU7PbtoN998S0bQH330saQ8iP2ZM/P2wx/+yEj+MR7GWF1da41933332z33NL8coIwvEOiHMY4fHzVfh/7PPPOTNn3hHPDMvmzrNh+dOmNVStfffGuuPb5dpL1/h3JtDqwBJe1veM+lGVn3xNsTdV++7+lXM1mQ+6IUkn+cQSnSXvbmHAQPRJykHXmqL27rSQjDm3sQeJJ9kfb+7X3iX/e8LjHw2NSSIWU37dNLNroeE0HWkY5OL9vozLKNz63YFdc9aZfd8owdPrVm+x550d76Z38t0j6IRN3b3Clpx808Evrl3bSD9ONLAEk/87yb9qm5JWP62c+ezYjw8vJKqw6EHGTb11GeOYg8btnxfNddd2dEHmOyfe/e69tIPb4YYCz2e+CB/XbbbftsZWU164Nn3NZDx6233pbdlvs66KWtx44dN+jHFwDUowz9KLMvyuiP23r8iQGeO0kn5xtWpfT+97/fbrzt9qhN11z7bfv4Jz7ZahNp79/BXZcDy8euQSuDjHvSjmeQeRD2kLSjvmh+6NMJaX/TR9t/MjAk2SB9lCFphwwINwlhjHyTnHtiz9dj0AbSH+tHncr7FxfqhG1dYuDR0+ukfXopixGjM81/bfnY9HJG2I9kpP2MTcyctnMv2Wef/e59dnxm0d5w1uX2v//JhSLtRYG16u0k7XxFhq+7pG7aQcTZliLtvp5knXkeaZ+ZX7YwgeCmbtqvv/76jPyiHWWQZd+fpB3k2Nc/9tjjds8992bEnPWQjekJxwcJJ2mn3meffS77MgGiD3L+wgsvZiSfpB1jkLSj7Os5ftl8anHZqpRA2pFu3nd7m127dn87q7/40ktb9SLt/Tuc63JgVT2epuwLb8w92UabJ+3Uwdv5sC+f0YeyPocvxMgaCTnbypB2yjIPdbAeOYg5X48pQ/Z9X5X7Fxvqgm1dYuBR3rSv37BnpB2/FjOzbC3iPjVnR06dso9edKtdvOdue8dZH7APXnaNLZmJtPtgOYhlknbkZV+PAbEHMffk3PfFqzSXX/fAplt2jJFH2tF25MjRFknHqy8gxuzz+ONPZGQb5Jx17AMi/PDDm98194QfxB638F4P2/HqDG7w/fh4Tx034rhpRxtu4PFe+v79D7bqMP5zz/28ZZfXTXIOGfaFLMqww8+hbLmKAfgTn/xkRtBvvf17GVm49tvfyZ4vufSyNvIg0t6/g7kuB9YgxljaDJLNm3a+AoMc7THSzn4g6bvvfrpF0PPefUefXpL2vFdjeLOOv2CKxGfezIPAk+Trpr1/e7+KZ8JO2FSXGHh0qmHHppq369jvJO3Zzzxm5L1hr52as5cnTtmHLrjZLv7O9220YTZ6esoOzYi0twIpA+yg5XmknbfvzEHSIQ9CznfceTPvSXvq1Zgi0o6baiYQ2yISDsINGRBpEnL0f/75FzISDWJMsky9yPGOOm/VIcM2yOKWnM/IH3zwoYyg44sCdaGOZJ85CD51oQ5lknbo8X3xRQD6/Dhly4urZlVMJO7ML73ssk12irT37+Cuy4E1aPHV2wvCzltyknUS8hhpB1FHu9eBftDjb+p9O8op0k5SXZSDcPH1GE++QLxJyH09ynwFhq/D8MadciLt/dv7xLjueV1iYEba199fB1E/PrNszRzlZjoys2SvzS7ZORffYRdfd5f93l9+0f7V73/WfvU/naub9jBgDtozSTuJOUk4X4FBOxJJOsog6GiP3bT7Ovb1eexG+eyzm/8qqSeuILm4acd74p6QUwbEF4Qd5DeUASknMYYevNLCfiDSINUk2XhNhsQ7zDE+9Ph66EIdbuZJvP2XBIxD22E3x6YdnsjTpk7yJfwpQ0WTJ+wxG0Xa+3dw1+XAGrT4SntBwEG2kVhmG/IYaSfBT+Up4p4i7bz1Jrnr5PUYEH0Qc5B5kn7+hCPqQMpj+kDeKc+c4yvvXzyoI7Z1iYFH1wk7XoVpEvaQtC/Z8QWzY8tmf/25++ziPffa6JLZ6MS4ndDrMRt/ROED8CCVQahJ0P1tuSfasTLIPf5CKkk+++I59WoM9OSRdpBgJhLf1M8ugkiDtONGG7/oQmKPMtpAlqGLZNnL4HUXknaOR1kQdV9Hgo5xqMu3x8rUT9JO3bB3377mqzGxfmXqltfMqpyu+upXk/aJtPfvkK7LgTVIsdXbivfTY2QdMiEpB4H3fVGO9Y3JQTZF2kMiFyPZlOFNO8g4yDYJOtuR40sAiDz0QJ76PFFHO2R1096/ve/XpM7lusRAkPVmcvxz/Ybd37Qfmlmwj11yh33hu/faz2fNvnnvM/arb3qnbtrD4Dpoz560g7zjxp2/DkMynyLi/ladpD1G8H1dHmkHMWYCuQWB5qsvZhttkAEBRsIHr7SAIEOehJ16QM55U44yPrglRxk522I5bMAYkEMOGYyDD+vRBjl8OCZzknY8QwZfJNjWdY5xBjSJtPfv4K7LgTVo8RX24pUW3Irz1RbUeaKO5/CmHc9eJlZO/cJML0l7JySQpD3WR6S9f3s/hncd62oTA/E6DG7Zoz9/22w7dHLWDo6N28cvusW+ctO99pv/5WP2m+/7sr3U0DvtCeDcN6AosNVpx2svfDXGk3AQdTyTcIPAg5jzGbmX7wdpB7H2pDsk1iDOvIkHQYZsGTLMm/BQll8UWP/CCy+0SD3GIvEO++M2Hu3sx7wfpH3V1mxQk0h7/w7u2hxYFY+n8YO0Ge89aQ/lQtIetsdu2kMZPveKtPN1lqKc76+LtPdvf9eRhHc659rEwOwd9nXSjr+Qmv1mO2JMk7Afm14x/Czk4VPzdsk3H7RP795vL8yZHT5j9uyro7ppZ6Ac1NyTcBLv2M062ngTT5JflOMLgdePctmbdhB0kPDUTTtfW+GN99raWvaXT0NiHz6DeKMON+ToQ4KNPCTtvo3tJO/hzTr63nrrrS2SH44bew51hOPFngeVsMNukfb+Heq1ObBqQNrx6zCxm/VUXXj2lCXtnZIiyfdv/wrbrWNblxg4OruS/eNJ2b4HYc9+tx2/KLNsx6ZW7Nj0qh2fsexfRf3Ylbfb6955kf3y2z9p//wtH7T/9Q8+IdIeBsxBew5Jdb+f80h79o5J8D+8UsJXUtBE0g0SjNdh9BkcBETat34wpQ73uhxYgxZfd8Jekfb+7bPU/lP9zmNelxiIf+20FVfW/2VU/ARkk7TjffcVG5tdtckzZodOzNrxk/N2YmLaJscns3xk0Jy1LgvbWtSK3UzF/IW/HjM49FOWdoOASHv/DjbFteq8crjTsVekvX/7LHZ+qa4aeNclBvJfQG3FGRB394sy+EuqE3MrNj2/aken1+yFk2aHps1OnDE7qt9p10HRcpySXw5iAQ6k/ZFHHmm9PkFyp/zIUGIS8wHVbe3gq8uB1Wm8qaO8SPvW9pJi0WDipxhYjo/qpr0kWa3j4RGbcywgirAPJzlPfemK+YDqtnZQ6sAqd2DFYtKw1Ym0b20vKRYNJn6KgeVioEi7SPvG+1UlsFBAHMyAqHWr9rrpwCp3YA0bQY/NR6S92ntVsbQ/66MYWC4GirSXIKqxwFrXOgWs/gQs4VpvXHVglTuw6hB3RdrrHQvqehYoBpaLgSLtIu26aW/okKjrQVGVeevAKndgibQrVlVlz8qO3vqiYmC5GCjSLtK+ZdJ+7e33m5IwkA905gP+0NeBVe7AEmnvLVHyPqiysN1JH1AMLBcDRdpF2ntC2ieWVk1JGMgHyvkAvuD4A1IHVrkDS6RdxNLvG5WHxx8UA8vFwJF/+eu/YUrCQD4gH5APyAfkA/IB+YB8QD5QXR8YOeuJcVMSBvIB+YB8QD4gH5APyAfkA/KB6vqASLu+tOhLm3xAPiAfkA/IB+QD8gH5QMV9QKR9hxfovY9PWpj8t9ywjc9FMr69ymXOx+feXl/vy0Uyvr3KZT8nlr29rAvzIhnfrnJ1b020Nlob+cBw+0AYu8s+e79I9SmS8e0qD4efibSLtO/oN+tYMPLBJdaOuiIZ317lcmx+3t5Y+zDN389V5eE4VLSOWkf5wIYPpGJ4Ub3HMCVbJOPbVd5Yk0HGQqRdpL2NAG+3M8eCkbch1o66IhnfXuVybH7e3lj7MM3fz1Xl4ThUtI5aR/nAhg+kYnhRvccwJVsk49tV3liTQcZCpF2kvY0Ab7czx4KRtyHWjroiGd9e5XJsft7eWPswzd/PVeXhOFS0jlpH+cCGD6RieFG9xzAlWyTj21XeWJNBxkKkXaS9jQBvtzPHgpG3IdaOuiIZ317lcmx+3t5Y+zDN389V5eE4VLSOWkf5wIYPpGJ4Ub3HMCVbJOPbVd5Yk0HGQqRdpL2NAG+3M8eCkbch1o66IhnfXuVybH7e3lj7MM3fz1Xl4ThUtI5aR/nAhg+kYnhRvccwJVsk49tV3liTQcZCpF2kvY0Ab7czx4KRtyHWjroiGd9e5XJsft7eWPswzd/PtT7lx+yNvzZiIyMdpF/7jP3xE+P2xx9+fWf91sf4hQ8/1rZnCrG+5TP2CyPvtt9txcc99rq259gBGM7L92/a3rIj058//5Zsy4bYmKorXEvh15nv9xivVAwvqvfrmpItkvHtKg9HrBBp7/EG7XRjxDaj1xFrR12RjG+vcjk2P29vrF3zH57192tdn3KT3L7uSyUPkS+920bWSXsSo7IykS8KUTs2kXZ+YXi9vfGWcTsrQbqjutZjLL5wtIh4RH9ybjsco2VXST/VOrWdy/Sb1BlWVM/+yFOyRTK+XeXh8GOR9h0ONLHN6DdXrB11RTK+vcrl2Py8vbF2zX941t+vdX3K66T97e/eILFPxIg8brdfb2/8cBFpb/ZtEeLSMW1dP0h42CdBqrOb/rfv2Sz/RFrX775984366z4c3uRHbAht0nMEd+G2yXcr5iepM6yo3s8rJVsk49tVHo69ItK+wxs8thn95oq1o65IxrdXuRybn7c31q75D8/6+7WuT5kEHbm/uX69/QKfEZd4e868Faua/cu9XuNeUQERbyPcfOUF+WZi3dJfdMuf2ZUm7VxXkPfWFwt+Kcjy2NjruLTmPBwHLrFQXp/1TJ1hRfXeR1KyRTK+XeXh8DmR9h0+FGKb0W+uWDvqimR8e5XLsfl5e2Ptmv/wrL9f6/qUSdo3iPnv4l11EGqQ2HWS3CK5CdKe9ypKhiWJsYtxLZ2o26TXHWqRvhvrU0Dy/ReA1peEZp9NpD1lm6vfGNfZp/a2M0AYVdc3UmdYUb1f05RskYxvV7m6PtLJ2oi073Dwj21Gv4CxdtQVyfj2Kpdj8/P2xto1/+FZf7/W9Sk70r7+WswIXoNZf00lewXl116/8RdBN5Fr358HUeSmO0q8N+T8qy5tZB4xsa2vv9nfsLN9vTb0ttev25fpG8n+JGEEf6G1TX9TZpMNOxybo/OQTW1njzDi/kvnqTOsqN5jm5ItkvHtKqfXaJCwEWnf4SAc24zegWLtqCuS8e1VLsfm5+2NtWv+w7P+fq3rU24n3Rl5bvtlluBWuqekff2GfQSv4oxY67Y+I9GOkEdI9Vk5763nt41bRsh/rfmnCc354pUYvLrTnGvrVRze0pd6JWc4DuH6+H091yt1hhXVe79IyRbJ+HaVh8P/RNpF2tu+AGz3xo4FI29DrB11RTK+vcrl2Py8vbH2YZq/n+vglP3NM8gnyW6qPjwsPGlHuUmg218dGdn4xZjSpN29v464FiXeTVtAopukecM2f/Me7xvcpsMukuxI3ppPRszfbW8s+PUY3bRvrMXg7AXZXLRWqRheVO/1pmSLZHy7ysPhqyLtIu1tBHi7N3YsGHkbYu2oK5Lx7VUux+bn7Y21D9P8/VzrU3aknYS8RbDZPoO2RQAAF3JJREFUxjz27rlrY/yiHj7nkvZmfxDu1k171g+kfJ34t+zxB12EtCduxD0Bx5cBEHjm2TpH9Ps+9fEFj6/Kw7juqRheVO+xSMkWyfh2lYdjf4m0+0NuB8qxzeg3V6wddUUyvr3K5dj8vL2xds1/eNbfr3V9yiTdzZw30s3b75HmX0hFLCIRZ96KT+zPQ2iDhG/c+qdv2puvpzRvvpO//x4h1ZtegdlkF+1Zfx1m/R90+t23N78IxEg7bt9Tt/XEpT5+sYGf5jw8WKTOsLL13hdSfYpkfLvKg+1bIu2tg3BnFjK2Cf2mirWjrkjGt1e5HJuftzfWrvkPz/r7ta5PeZ10b/qtcnfTncWldbm35/1O+zph5403iHT2qgpf2QniWkbG2dbsGyXHuaR9/cY95/fjY7fmMdK+8S+uBnbucFyujy8Kd621fGCQfECkfYcPhxgp9Q4UaxdpHR7SGlvfOq2/n2t9yutEG+S69ZOIOQcniPgmuQ0dadLt37eHfpBt91vpiH0g5yT8PhYmSTt0rr9W0/qC0KwLb8xDu0Tac9bYY69y26VUfeKC/ENrXewDIu07HCDrTto0/8lN/0S1D1wxfFBXJOPbVS4OhNuLUZNwt79PHtgYEGIS4NYrNK2//Br0C+NZRr6bJDt2++3n3XxtZoOAc8yWTGaT+8uueI4R/ifaX49h/82kfWOskPBnz5u+qBTMNZy7ntviBNdBufxIPjC4PiDSvsOBPUbK/IaKtQ8TaYvNT/PfCCgxfIZp/f1aq7yx7sJCWMgH5APyAflA6AMi7SLtO3obEyOl3klj7cNEWmPzq9P8/VxV1gElH5APyAfkA/KBtA+ItIu0i7TvoA+ItKeDkwK3sJEPyAfkA/IB+cCGD4i07yBhgyPWnbRp/nqnXQF5IyALC2EhH5APyAfkAykfEGkXaddN+w76QN2/tKQCk+p1aMkH5APyAfmAfKDdB0Tad5CwwRnrTto0f920Kyi3B2XhITzkA/IB+YB8IOYDIu0i7bpp30EfqPuXllhQUp0OK/mAfEA+IB+QD2z2AZH2HSRscMi6kzbNXzftCsybA7MwESbyAfmAfEA+EPqASPsOk/ZwQfSsTSofkA/IB+QD8gH5gHxAPhD6gEi7SPuOvh4TOqSeFaTkA/IB+YB8QD4gH5APbPaBkTd/YbcpCQP5gHxAPiAfkA/IB+QD8gH5QHV9YGRuec2UhIF8QD4gH5APyAfkA/IB+YB8oLo+MDLVWDUlYSAfkA/IB+QD8gH5gHxAPiAfqK4PiLTrS4u+tMkH5APyAfmAfEA+IB+QD1TcB0TaK75A+sZb3W+8WhutjXxAPiAfkA/IB+QD2+UDIu0i7fpmLR+QD8gH5APyAfmAfEA+UHEfEGmv+AJt17c3jaObAvmAfEA+IB+QD8gH5APV9QGRdpH2jr5Zj07N2gUXXmQvHDrSUb/tCgKP/eRn9sUrrrDJ+aVK2rddOHQzTpXXFv72qfP+JvM72HnxZZ8z5N3Mc1D7+HnDz88+++xNib7v8cJ88XzV177eti++f98PDHp6hUc4Zqh3u/bmdo0Tzk/P1SU6/VibvHhZtBf6YY901sP/MtIOBwMR84fgZz93uSF5R3h1bML+p3/yT21kZMT+h3/0j+yHT/+krR2y373te1k7ZHyiLvRB3zwdHNPrwrgYH23eDl/PfmEemwtl8togA2w+cs452eGIHM/s6w/OsI0yHlvg+/FPfLJ10IYHZth+ze5vZ2OBgOIwDuW9bowX9vfyeW0xW1kX5tDTCWmn7Sl8aBfJRjhep8+Ycye6IE/yAxLT6XjDJN/t2hI/5PBv6Ok1LvD1PNKOvUI7uG96bcNO6wOuqS8rmHOIPfce4wByyqAcw2krOPo1imGFMTvZmzEdZeq6HQf96EPECeP5+jCOMX6hX9hGWxFXwtiSpzOvX14b8IcNMVvy2qiTc/G2si6mM68f22Jz9z4Gvd4P88bLa+N4lPFzKMLa2+Ntoc5UjrFSZ2HRXkjp3In6ovkzjmCtmPz+2G6bvb20J/Sjrdq0E3OO7ZXYvs1Iuxf2pJpEGwCMzZyx//O3fqtF5EGoyxBm6PuV1/1qRrSpA32hM08H2jAe+vgFwPM73vknLQL/rv/6p4bkZVhOzQXteW3sz4XDpkcdcjorNuw3vnVt6+bKt7E/cmLLYEJd0I3+qKduOB7bWYf+oR3UjwXll608/Xlt1IWctvq6sAxdqUAVyuKZtn/+i1/cdHChHWNi3r06zIFfWV3Ab8+NN2X4dzqv2Fz7UUf8vF/0Yxzo7BSDmG2wM/TjlL2x/ilZXw87PXkN90En/un1VrkcHlTYN7CXQZ3PsTlQBusSS+zbbxw72ZuxeZSt62acVB/4WirO03+JH3TwfPBrA8wpg/o8nXn98tqgE2PDBsj5+eS1QZYJNnpbi+aX6od673N+7miDL9NO6kCeN15em9cRzqEM1v4M7SR2QHcn8t7OsmXOO4ZXWR15cmX2fMwG2ANfKWNXrH+eTWXbgL8/B8r2KyMXs7mTOZcZgzKpvZLatyPe8UiqQdZBhD1p9+Qbg1GWBJwGhLnXgxvyX//Xv9Ei3HgGoYdu3w+63/LW/2tTvZdhOY/c80uGtwH9aHtsntSLPHQKj5WXo2y4gb08Fib842nqgJwPuKxnHnMgtPkNl6c/r41jeFtZF8vLyrEvbb/9rntaXzB8GzBBW1mizb6pHBurG120s0wQSo3dj/rttKvbtQ0x836Zh0m3c4OdPlj7NfdzKGtHno1VavPzIXYpXwcxQgrtRz/sOegK2/qNo9cfjt3L507HycMktCvPv7gmGJ9lkEisQ0hcvV6vM69fXls4Z8hynfPaaAd968qrv9aylXWwD3IcH/ry+lEuNfcUac8bL68tzxa2MfdYo85j49vC8djf517e1/eyTCw95r3UX2b+KRvKYARbU/23Og/g78+Brerz/VM2l52z15VX5jixveLXBjogiz09EjZwgJDoghyjju3IQxnfhnJI9MM+KcKNfiDt//c7/qj1io3/AuHHKbIhHNP3jbVhUfjH8Gj3ATeFFeTQ5m9ZWMdDFQ6WIuZ5eqGHCws5PDN5B8rTn9dGXaEN7MObOR46qMeXExBttpEc0M4HH308myvmDnnk0O+xxLgc84dPPt1GtP3Y+OPePFLvZWkPMccYYXu4Rpy/x7KoXzhPjuvXJxyX+IV9aSvG5x9tQx90hTooG9ZTN+xGmfb43Muk+qO+27Uljsg5R+IRGy+s49xiOECnXx/0DYM1fIvz5Vx9H1+O6QvnTR2UDdcG9cQL/s52zBkptIXy8L9YW5l1gwzGuXbPXtt3590tPdTHnLhDnrhifCSsDckc63y+FRxDjMM1hn3enrCdmEMP8UQfzod+5eML6kI94ThF2GI8YPL1a3a1MKUtHhuUYQtjCMqMfZQLYxzqY3WUD3X6+rx+YRts8dgSK9TntWE8L+v1Fs0v1S9vDuxDXyWWxAHjx/r3whaO4cdEHcakPVz3Il+GHPd/7CwM+3sf9OP7etqAnPohy3qsL8ZE7vfAsy+/0nYhFo4d7g/oDjHmGGzzOrhmWAPfL6xHn3DfhmPTR8N6jgv9KNMen3sZyEFHeA54uyETPueNmzc3toVzztOX10Z9Pvd7D/WpfTsCwXAx0CEkw7yV9oOEMr4tpgN1Zd5HB5nHO+/I0Qck/n/+Z7/YunnHM9+Lp0w4tn/OszNswyJ70u6B95vN66ezhjiG2KIdThjqCRfH60aZjuIdmGWvK6UfOvLa0O5txZz9nxpwfOggHpBHP48X5bxNrENfJLaF9eFmhqyfO9tRx0RbKIt62EVZtvvN7m2gHj8H1BX1o+2cC/p4veifwi/WF3U37ftets6hLspzjnm6OZ+8PK8/593N2voxvc1543k59M/DAWsETKEPyQdrYIP9gFewkNN+1NMXfH+M5Z+L5p1aG/bjGLSD44djpHzCY5cqY6wrvnJlFpsu/OzF2cEGvPiKHcbE+PB15F4PcWbM8Hnow1vBMZwvdHtbYCOxInZ+b8LmPB/gPLzN1JMax+OQKqMv5k0dmIc/A9gP9SAllIPtXGvK4DmcU6yO8qFO1iPP6xe2hXr8nPLaOA70sUz7i+aHPrF+ZefA8egTeePltVFPkS0hDuhHnPJiB32MuHB+rOe40E+/QZnxypfZt2xOn6fP8dnvgVC/f4aNeXGnzPw5Jm2g7b4e5VSc9HLoW2QT9Rfl0OPPAcj7uYfPnYwb2kxbfH2ePrRhjUKfoZ5YDj/y8piLjzdcqxE6VqgkJLMgx6jzcqGMb4u9+hKS75gMdGCs8H321FioD2W9HSin+ha1ATRuQsiGi4Q6gAxgIYtnptB5WM8+OCS42bEYDFxejmXvKKxDnhoDNnn9vk+sLdRD54AOn9A3xAC28eYuZqevYxl6/JxTZdrt21mHPFbv63yZ/WgD2lAXPqf0ejlfjumFbo8by5h3rC91cG0gz6Acyufppp68PK//VtbWjwmb6RN544Vzo44YDt5HYSeDta9nf+wrJoyP+lDOP+fNmzpjNoX98p7zcOAYeTnGv/G227N5Hxo/mR2Q+BMqzBM4krzj72hgbtDlcaJuvzasQ+7xYD0xRF4GR68D8mFM83W+zPF8HsM75i8xPbE6rzssx+QxZ9hAWZTDOI9+kKMM8rBfqg71MZ1FutgeGwf2MNYAe/yJDH0h1RbO3evNm19eP9qI3Ovz9Sz7PVM0HnSxn9ddxpYY1t5fqRdjMEEv6kP9lPW2o87vLa8bcojnof9QT14e+nz4jL5+rPAZttMnfA48wn7oy7kj5/xjY0LWzxfPSNDLcfp1hnGsWHwL5+Sf87CgTuZl5pynD21h/KPuVA7MgZ9v92NwT2c37V6I5ZDohkSa74WnbrpDeegte1vP12MwRsoe1qeIP9uRh3Mp2wYAAaSX98CiHLZTNtaXbci5kbEo4eb3ciinHMg7ZNjH6y9qC23Nc7jQVr9xY3aGddSNP4qmg7IOsr5Mu2N1aIvV+zpfpi5vL+rC+aT0+n7hnNDH18XG9eNj80GGdVhHBHTi4dfV603ZRj3IoYNB0+fUnWdbiEUnc/Y2+DF82cugHM4tDwePCewkaY/pp14fNH1/jO2f8+adZ1PYL+85ZqfHo2jd7n3oEQNZ57z92kA345An7b6eY/l+rEMes69THD2mMX2+zpe9HXl40x70ZZ+YnrCuCFuMiS+Z0E+9ZeJ8OE7MPujzurx+rhnrwjzWjzJ5bZDxe4R9mLMN/oQ94uMEy6gPX1vk/FhPWZ/7PYfxOrEzD89UWxlbYAMS58881Il6ztHPIyYH2XC/oy8vK/xe4HjU7cl7kW+yD2zw9vEZdeFY/jllO/rF2jienz/r/Jhhf4y5XWcYxkaiHyNnnZ876vxzbL7sF+Zl5pynL68tHIvPZfdK9k47O/k8JLohSfekPLxBh56wP+pCOb4qA12+jWPxPXbfhvLZH/ir1iJBhjftXi5vLnltWGTervsy+sA58O0RC+KdwetDObbgkOcvlVCX/2MrbF6/mSGDcVAf04d2b0Oe/ry2mG4/T4yDhFs+1CN5u9GfgSqmK6yjbn4L5zwZJNiOuaON/dmOuXB9imTZDgw5jzKbqagfbfIHAcbgnNifc/D4sa9vC23yukL5PN2cY16e1x9tW1lbjIu5eD/OGy+cWx4O3tehk+TV+wPnDfxAJLwdoZzHOG/eeTaF/fKe0cbYQTu5p/hclEMH580AH47pSTtkYD/x8OTKlyEX4gNb2K8sjuEa+flyrbmPQzzwjPd08/CmDsgQq1APZTgO5fJy9sF8Ieex8HMKdbAf7QltpzzXis95OimDPOxXtm0rff2YZeeXN57XBznoPDxxqrV+aEdiG9Ythme3tuRh7dcZ4yPFfD70Mfoq8lS89OOi/MzPX4jOkeOm8nDe4TP6hfPAHMqcRWG/1PxjY2KNfFwIfd/bEPYP8cS4ncZC9IEexkM8I4Vz8nZ0Mm5oM3SHc87TF7bhGfGNdsbycK+EMmwfgXFhI55TpJvvkvufewzJsifjoW4QdP/77XiGTEoHZSkHWRB11ufZwbFjc0m1hYuOhfIHHJ7RN6ynDOqhI7y5QR8GBC9LO2I6U8GMfTAOggYcokh/auyUrajHpgxtxVipQBVz9FgdbOHcOG9/yPqxYYP/i6hoI2lnX9oYyqKdm4cyDGZo8+2wiXW+PtaPc8IfP8fa0d/PATL0G/blM2RZR13fvHZ3dF2JUUq3tz+vnOrf7drSbuS00Y+fGg8y9Ev0w/jIqc/jAB30dcj5YB3uRdrAeq45x4J+r7vMvGM2hf2KnvNw8Hilypw3DjjsHzyHxJivyVAWudcHX+OXbF+PMvHiXDvF0a9RqC+2Nz0eXKO8vcA2v3fKjBPOM/ZMLDl3jhFiErbH5hDq52HL+iKdlAv7sR552EZsaJ+PZ3ltXmdMb5n5xfpRb2hniDN9jPJ54+W1sX9oSxHWYTvtYT39MjY25pI6CyHPeEWbuDbAxNtbVGbcgm0YEzns8/0ogzF8bIOMtx3tvi/nSdti84/9iQzlaEPoY6ENtI/98myizqIcWPhzgPIcq1Ms2B95OB/oou1eLm8evo1+5PuG5XCvhDZgXuijfxF1nbyFAG7lOQR/K7r63XcQbEVgiW2YfmOT0s/N5INfSlb1zS9HwmHrOPhDyvugPxxICBDgWfbYo1+KtHs5lbe+XsJQGMoH5AO99gGR9h6T9vDbd68XrJf6qmgrSAVvCzFX2IhvqfyW2cv5d6vLE6Zudaifgrl8QD4gH5APyAfkA534gEh7j0l7J+BLNr5Z/c0h/liqSoQdaybSHl83+bNwkQ/IB+QD8gH5QP98QKRdpL3t3Thttv5tNmErbOUD8gH5gHxAPiAf6NYHRNpF2kXa5QPyAfmAfEA+IB+QD8gHKu4DI3PLa6YkDOQD8gH5gHxAPiAfkA/IB+QD1fWBkTd/Ybd1m/7j5bttq6nbsavQb6tzR/8qzKNbGzR/+f9WfaBb36tCv63OXftf8a8KftytDfJ/xf+t+kC3vleFflude7fxf+SsJ8at2/Texydtq6nbsavQb6tzR/8qzKNbGzR/+f9WfaBb36tCv63OXftf8a8KftytDfJ/xf+t+kC3vleFflude7fxf+S9j50wJWEgH5APyAfkA/IB+YB8QD4gH6iuD4x89K6fmZIwkA/IB+QD8gH5gHxAPiAfkA9U1wdGLrjuflMSBvIB+YB8QD4gH5APyAfkA/KB6vrAiOkjBISAEBACQkAICAEhIASEQKUREGmv9PLIOCEgBISAEBACQkAICAEhYCbSLi8QAkJACAgBISAEhIAQEAIVR0CkveILJPOEgBAQAkJACAgBISAEhIBIu3xACAgBISAEhIAQEAJCQAhUHAGR9oovkMwTAkJACAgBISAEhIAQEAIi7fIBISAEhIAQEAJCQAgIASFQcQRE2iu+QDJPCAgBISAEhIAQEAJCQAiItMsHhIAQEAJCQAgIASEgBIRAxREQaa/4Ask8ISAEhIAQEAJCQAgIASEg0i4fEAJCQAgIASEgBISAEBACFUdApL3iCyTzhIAQEAJCQAgIASEgBISASLt8QAgIASEgBISAEBACQkAIVBwBkfaKL5DMEwJCQAgIASEgBISAEBACIu3yASEgBISAEBACQkAICAEhUHEERNorvkAyTwgIASEgBISAEBACQkAIiLTLB4SAEBACQkAICAEhIASEQMUREGmv+ALJPCEgBISAEBACQkAICAEhINIuHxACQkAICAEhIASEgBAQAhVHQKS94gsk84SAEBACQkAICAEhIASEgEi7fEAICAEhIASEgBAQAkJACFQcAZH2ii+QzBMCQkAICAEhIASEgBAQAiLt8gEhIASEgBAQAkJACAgBIVBxBETaK75AMk8ICAEhIASEgBAQAkJACIi0yweEgBAQAkJACAgBISAEhEDFERBpr/gCyTwhIASEgBAQAkJACAgBIfD/AXigYUq41cf7AAAAAElFTkSuQmCC;" parent="WIyWlLk6GJQsqaUBKTNV-1" vertex="1">
          <mxGeometry x="770" y="160" width="749" height="193" as="geometry" />
        </mxCell>
        <mxCell id="lwKyXHzO9EQtF-tPuh2o-16" value="" style="endArrow=classic;html=1;rounded=0;entryX=0;entryY=0.653;entryDx=0;entryDy=0;entryPerimeter=0;exitX=1;exitY=0.65;exitDx=0;exitDy=0;exitPerimeter=0;" parent="WIyWlLk6GJQsqaUBKTNV-1" source="lwKyXHzO9EQtF-tPuh2o-14" target="lwKyXHzO9EQtF-tPuh2o-15" edge="1">
          <mxGeometry width="50" height="50" relative="1" as="geometry">
            <mxPoint x="390" y="390" as="sourcePoint" />
            <mxPoint x="440" y="340" as="targetPoint" />
          </mxGeometry>
        </mxCell>
      </root>
    </mxGraphModel>
  </diagram>
</mxfile>
